<?xml version="1.0" encoding="UTF-8" standalone="no"?>
<!-- Created with Inkscape (http://www.inkscape.org/) -->

<svg
   width="1024"
   height="1024"
   viewBox="0 0 270.93333 270.93333"
   version="1.1"
   id="svg1"
   xml:space="preserve"
   inkscape:version="1.4 (86a8ad7, 2024-10-11)"
   sodipodi:docname="icon.svg"
   inkscape:export-filename="icon.png"
   inkscape:export-xdpi="24"
   inkscape:export-ydpi="24"
   xmlns:inkscape="http://www.inkscape.org/namespaces/inkscape"
   xmlns:sodipodi="http://sodipodi.sourceforge.net/DTD/sodipodi-0.dtd"
   xmlns="http://www.w3.org/2000/svg"
   xmlns:svg="http://www.w3.org/2000/svg"><sodipodi:namedview
     id="namedview1"
     pagecolor="#ffffff"
     bordercolor="#111111"
     borderopacity="1"
     inkscape:showpageshadow="0"
     inkscape:pageopacity="0"
     inkscape:pagecheckerboard="1"
     inkscape:deskcolor="#d1d1d1"
     inkscape:document-units="mm"
     inkscape:zoom="0.15139957"
     inkscape:cx="105.68062"
     inkscape:cy="-3.3025192"
     inkscape:window-width="1920"
     inkscape:window-height="1057"
     inkscape:window-x="1912"
     inkscape:window-y="-8"
     inkscape:window-maximized="1"
     inkscape:current-layer="g36" /><defs
     id="defs1"><filter
       style="color-interpolation-filters:sRGB;"
       inkscape:label="Drop Shadow"
       id="filter18"
       x="-0.093614579"
       y="-0.054127328"
       width="1.2121877"
       height="1.1226298"><feFlood
         result="flood"
         in="SourceGraphic"
         flood-opacity="0.498039"
         flood-color="rgb(0,0,0)"
         id="feFlood17" /><feGaussianBlur
         result="blur"
         in="SourceGraphic"
         stdDeviation="4.000000"
         id="feGaussianBlur17" /><feOffset
         result="offset"
         in="blur"
         dx="3.000000"
         dy="3.000000"
         id="feOffset17" /><feComposite
         result="comp1"
         operator="in"
         in="flood"
         in2="offset"
         id="feComposite17" /><feComposite
         result="comp2"
         operator="over"
         in="SourceGraphic"
         in2="comp1"
         id="feComposite18" /></filter><filter
       style="color-interpolation-filters:sRGB;"
       inkscape:label="Drop Shadow"
       id="filter21"
       x="-0.069217446"
       y="-0.069217446"
       width="1.1528976"
       height="1.1528976"><feFlood
         result="flood"
         in="SourceGraphic"
         flood-opacity="0.498039"
         flood-color="rgb(0,0,0)"
         id="feFlood20" /><feGaussianBlur
         result="blur"
         in="SourceGraphic"
         stdDeviation="4.000000"
         id="feGaussianBlur20" /><feOffset
         result="offset"
         in="blur"
         dx="3.000000"
         dy="3.000000"
         id="feOffset20" /><feComposite
         result="comp1"
         operator="in"
         in="flood"
         in2="offset"
         id="feComposite20" /><feComposite
         result="comp2"
         operator="over"
         in="SourceGraphic"
         in2="comp1"
         id="feComposite21" /></filter><filter
       style="color-interpolation-filters:sRGB;"
       inkscape:label="Drop Shadow"
       id="filter33"
       x="-0.068367038"
       y="-0.13673323"
       width="1.1595231"
       height="1.2392831"><feFlood
         result="flood"
         in="SourceGraphic"
         flood-opacity="0.349020"
         flood-color="rgb(0,0,0)"
         id="feFlood32" /><feGaussianBlur
         result="blur"
         in="SourceGraphic"
         stdDeviation="2.500000"
         id="feGaussianBlur32" /><feOffset
         result="offset"
         in="blur"
         dx="2.000000"
         dy="-2.000000"
         id="feOffset32" /><feComposite
         result="comp1"
         operator="in"
         in="flood"
         in2="offset"
         id="feComposite32" /><feComposite
         result="comp2"
         operator="over"
         in="SourceGraphic"
         in2="comp1"
         id="feComposite33" /></filter></defs><g
     inkscape:label="Layer 1"
     inkscape:groupmode="layer"
     id="layer1"><g
       id="g2"
       transform="matrix(1.0408873,0,0,1.0408873,18.597015,12.508715)">
	
<g
   id="g33"
   transform="translate(3.8062325)"
   style="stroke-width:9.51558;stroke-dasharray:none" /><g
   id="g36"
   transform="translate(5.3991168,8.6385397)"><g
     id="g35"
     style="stroke-width:9.51558;stroke-dasharray:none"
     transform="translate(3.8062316)"><g
       id="g34"><circle
         style="fill:#e6e6e6;fill-opacity:1;stroke:none;stroke-width:9.51558;stroke-dasharray:none;stroke-opacity:1"
         id="path34"
         cx="112.27887"
         cy="100.7281"
         r="103.71511"
         inkscape:label="bottom_half" /><path
         style="fill:#f2f2f2;fill-opacity:1;stroke:none;stroke-width:9.51558;stroke-dasharray:none;stroke-opacity:1"
         id="path33"
         sodipodi:type="arc"
         sodipodi:cx="112.27887"
         sodipodi:cy="100.7281"
         sodipodi:rx="103.71511"
         sodipodi:ry="103.71511"
         sodipodi:start="3.9269908"
         sodipodi:end="0.94158041"
         sodipodi:arc-type="arc"
         d="M 38.94121,27.390447 A 103.71511,103.71511 0 0 1 144.29909,2.0795887 103.71511,103.71511 0 0 1 214.70735,84.442204 103.71511,103.71511 0 0 1 173.31635,184.58065"
         sodipodi:open="true"
         inkscape:label="top_half" /></g><circle
       style="fill:none;fill-opacity:1;stroke:#000000;stroke-width:9.51558;stroke-dasharray:none;filter:url(#filter21)"
       id="path2"
       cx="112.27887"
       cy="100.7281"
       r="103.71511" /><path
       id="rect8"
       style="fill:#000000;fill-opacity:1;stroke:none;stroke-width:9.51558;stroke-dasharray:none;filter:url(#filter33)"
       d="m 33.66077,-112.27887 c 0,3.13299 2.80634,5.65519 6.292391,5.65519 h 75.176809 c 0.11334,0 0.22377,-0.0101 0.33559,-0.0154 0.1005,0.005 0.19976,0.0154 0.30161,0.0154 3.13299,0 5.65519,-2.5222 5.65519,-5.65519 v -47.19771 c 0,-3.13299 -2.5222,-5.65519 -5.65519,-5.65519 -3.13298,0 -5.65518,2.5222 -5.65518,5.65519 v 41.54252 H 39.953161 c -3.486051,0 -6.292391,2.5222 -6.292391,5.65519 z"
       transform="rotate(90)" /></g><path
     d="m 47.328031,152.92624 43.773191,-42.70856 c 1.66657,-1.62528 2.60641,-3.85537 2.60641,-6.18338 0,-2.32799 -0.93984,-4.558078 -2.60641,-6.183362 L 43.06466,50.983648 c -2.48736,-2.426884 -6.186257,-3.124806 -9.38882,-1.778883 -3.202562,1.349763 -5.284805,4.487047 -5.284805,7.962255 V 134.451 l -40.63784,-39.64807 c -3.41569,-3.332172 -8.884815,-3.265925 -12.217944,0.149754 -3.332161,3.415691 -3.264967,8.885786 0.150723,12.217956 l 46.89704,45.75656 -46.89704,45.75655 c -3.41569,3.33217 -3.482884,8.80226 -0.150723,12.21795 3.332172,3.41568 8.803223,3.48288 12.217944,0.14976 l 40.63784,-39.64806 v 77.28397 c 0,3.4752 2.082243,6.6125 5.284805,7.96226 1.08288,0.45696 2.222401,0.67775 3.353289,0.67775 2.212807,0 4.389123,-0.85055 6.035531,-2.45666 l 48.036562,-46.86726 c 1.66657,-1.62529 2.60641,-3.85537 2.60641,-6.18339 0,-2.32799 -0.93984,-4.55808 -2.60641,-6.18336 L 77.268767,182.14007 Z M 45.67202,77.666897 72.696069,104.03335 45.67202,130.3998 Z m 0,150.517713 v -52.7329 l 27.024049,26.36645 z"
     id="path1"
     sodipodi:nodetypes="ccscccsccccccsccscsccsccccccccccc"
     style="fill:#0083fd;fill-opacity:1;stroke:#000000;stroke-width:3.40651;stroke-dasharray:none;stroke-opacity:1;filter:url(#filter18)"
     transform="matrix(0.95772012,0,0,0.95772012,13.198904,-23.822364)" /></g></g></g></svg>
